# xmcd
#
# Track frame offsets: 
#        150
#        25959
#        54084
#        73859
#        107373
#        127333
#        153743
#        177064
#        194658
#        225906
#        241436
#        265993
#
# Disc length: 4013 seconds
#
# Revision: 0
# Processed by: cddbd v1.5.2PL0 Copyright (c) Steve Scherf et al.
# Submitted via: ExactAudioCopy v1.2
#
DISCID=a40fab0c
DTITLE=Beautiful Bobby Blackmon - Travelin' Home
DYEAR=2005
DGENRE=Blues
TTITLE0=I Don't Know But I Gotta Go
TTITLE1=Feels Like Rain
TTITLE2=I Been Down So Long
TTITLE3=If Mama Ain't Happy
TTITLE4=I'm Gonna Dedicate the Blues
TTITLE5=The Bluest Blues
TTITLE6=I Had a Dream Last Night
TTITLE7=Tip-Toeing
TTITLE8=It Ain't Easy
TTITLE9=Sin City
TTITLE10=Turn Me on or Turn Me Off
TTITLE11=Movin' in the Wrong Direction
EXTD=
EXTT0=
EXTT1=
EXTT2=
EXTT3=
EXTT4=
EXTT5=
EXTT6=
EXTT7=
EXTT8=
EXTT9=
EXTT10=
EXTT11=
PLAYORDER=
